<svg xmlns="http://www.w3.org/2000/svg" width="35" height="39" viewBox="0 0 35 39">
  <path fill-rule="evenodd" d="M24.298 10.858l4.44 3.458 4.602 4.05c.692.61.261 1.751-.66 1.751h-5.703a1 1 0 00-.883 1.469l8.456 15.946A1 1 0 0133.667 39H21.08a1 1 0 01-.943-.669l-2.08-5.918c-.317-.903-1.6-.887-1.895.023l-1.904 5.873a1 1 0 01-.951.691H1a1 1 0 01-.88-1.473L8.678 21.59a1 1 0 00-.881-1.473H1.979c-.922 0-1.352-1.142-.66-1.75l4.602-4.05 4.44-3.459C10.696 4.766 13.688 0 17.328 0c3.642 0 6.634 4.766 6.969 10.858z" clip-rule="evenodd"/>
</svg>
